<svg xmlns="http://www.w3.org/2000/svg" viewBox="0 0 165.521 105.965" fill-rule="evenodd">
  <path d="M150.698 0H14.823C14.814 0 14.806 0 14.797 0 6.619 0 0 6.619 0 14.797c0 .009 0 .018 0 .027v76.318c0 .009 0 .017 0 .026 0 8.178 6.619 14.797 14.797 14.797.009 0 .018 0 .026 0h135.875c.009 0 .018 0 .027 0 8.178 0 14.797-6.619 14.797-14.797 0-.009 0-.017 0-.026V14.823c0-.009 0-.017 0-.026C165.521 6.619 158.902 0 150.698 0z" fill="#000"/>
  <path d="M43.528 35.771c1.221-1.569 2.059-3.667 1.821-5.81-1.788.095-3.905 1.174-5.174 2.743-1.124 1.316-2.106 3.462-1.845 5.511 1.982.167 4.021-.927 5.198-2.444zm1.964 3.084c-2.882-.167-5.326 1.603-6.698 1.603-1.399 0-3.486-1.53-5.797-1.484-2.978.048-5.712 1.703-7.253 4.372-3.11 5.336-.809 13.244 2.206 17.593 1.459 2.136 3.2 4.467 5.514 4.392 2.176-.095 3.011-1.387 5.654-1.387 2.619 0 3.38 1.387 5.652 1.339 2.39-.047 3.941-2.135 5.399-4.29 1.65-2.446 2.337-4.796 2.36-4.916-.047-.024-4.557-1.741-4.604-6.982-.024-4.418 3.629-6.553 3.795-6.648-2.057-3.017-5.232-3.347-6.228-3.392zM76.107 32.713h-14.45V64.63H67.7V54.25h7.407c6.703 0 11.393-4.586 11.393-10.79 0-6.206-4.613-10.747-11.393-10.747zm-.189 10.508H67.7V38.16h8.218c4.226 0 6.598 2.251 6.598 5.539 0 3.313-2.372 5.522-6.598 5.522zM103.338 64.822c3.315 0 6.37-1.668 7.745-4.299h.12v4.107h5.511V49.046c0-5.418-4.321-8.921-10.976-8.921-6.157 0-10.694 3.551-10.861 8.445h5.37c.451-2.348 2.619-3.898 5.324-3.898 3.432 0 5.347 1.575 5.347 4.491v1.978l-6.974.41c-6.513.382-10.027 3.052-10.027 7.65 0 4.68 3.657 7.521 9.421 7.521zm1.591-4.562c-2.978 0-4.851-1.41-4.851-3.56 0-2.22 1.8-3.512 5.27-3.724l6.227-.381v2.025c0 3.313-2.834 5.64-6.646 5.64zM123.449 78.256c5.27 0 7.77-2.014 9.942-8.063l9.514-26.516h-5.946l-6.346 20.36h-.12l-6.346-20.36h-6.133l9.226 25.225-.501 1.578c-.833 2.634-2.194 3.66-4.614 3.66-.43 0-1.27-.048-1.605-.096v4.609c.335.097 1.795.143 2.929.143z" fill="#fff"/>
</svg>
