<svg xmlns="http://www.w3.org/2000/svg" viewBox="0 0 121.32 48" fill-rule="evenodd">
  <path d="M58.027 23.8v8.533h-2.72V11.247h7.2a6.493 6.493 0 014.68 1.853 6.133 6.133 0 010 8.84 6.413 6.413 0 01-4.68 1.854zm0-10.027v7.52h4.547a3.627 3.627 0 002.72-1.08 3.6 3.6 0 000-5.253 3.6 3.6 0 00-2.72-1.16zm17.306 3.76c2 0 3.574.533 4.72 1.627 1.147 1.067 1.72 2.533 1.72 4.4v8.8h-2.587v-1.973h-.12c-1.107 1.627-2.56 2.453-4.373 2.453-1.547 0-2.84-.453-3.88-1.387-1.04-.92-1.56-2.08-1.56-3.48 0-1.467.56-2.64 1.68-3.493 1.12-.867 2.627-1.293 4.493-1.293 1.6 0 2.92.293 3.96.88v-.613c0-.933-.373-1.72-1.107-2.36a3.787 3.787 0 00-2.56-.947c-1.48 0-2.64.627-3.493 1.867l-2.387-1.493c1.2-1.733 3-2.587 5.494-2.987zm-3.307 10.267c0 .693.307 1.267.9 1.733.587.467 1.293.693 2.12.693 1.147 0 2.173-.44 3.08-1.307.907-.88 1.36-1.907 1.36-3.093-.853-.68-2.04-1.013-3.56-1.013-1.107 0-2.04.267-2.773.8-.747.52-1.127 1.173-1.127 2.187zm22.88-9.787l-9.36 21.493h-2.8l3.467-7.493-6.147-14h3.014l4.44 10.72h.066l4.32-10.72z" fill="#5f6368"/>
  <path d="M47.787 20.22a17.627 17.627 0 00-.267-3.12H35.2v5.893h7.08a6.107 6.107 0 01-2.613 3.987v3.28h4.227c2.48-2.267 3.893-5.627 3.893-10.04z" fill="#4285f4"/>
  <path d="M35.2 32.627c3.547 0 6.52-1.16 8.693-3.147l-4.227-3.28c-1.173.8-2.693 1.267-4.466 1.267-3.44 0-6.347-2.293-7.387-5.387H23.44v3.387a13.08 13.08 0 0011.76 7.16z" fill="#34a853"/>
  <path d="M27.813 22.08a7.9 7.9 0 01-.413-2.48c0-.853.147-1.693.413-2.48V13.733H23.44a13.12 13.12 0 000 11.747z" fill="#fbbc04"/>
  <path d="M35.2 11.733a7.133 7.133 0 015.027 1.973l3.733-3.733A12.64 12.64 0 0035.2 7a13.093 13.093 0 00-11.76 7.16l4.373 3.387c1.04-3.08 3.947-5.814 7.387-5.814z" fill="#ea4335"/>
</svg>
